<svg width="31" height="31" viewBox="0 0 31 31" fill="none" xmlns="http://www.w3.org/2000/svg">
<circle cx="15.5713" cy="15.5713" r="15" fill="white"/>
<g clip-path="url(#clip0_6716_2324)">
<path d="M11.0713 8.07129H20.0713C20.2702 8.07129 20.461 8.15031 20.6016 8.29096C20.7423 8.43161 20.8213 8.62238 20.8213 8.82129V22.3213C20.8213 22.5202 20.7423 22.711 20.6016 22.8516C20.461 22.9923 20.2702 23.0713 20.0713 23.0713H11.0713C10.8724 23.0713 10.6816 22.9923 10.541 22.8516C10.4003 22.711 10.3213 22.5202 10.3213 22.3213V8.82129C10.3213 8.62238 10.4003 8.43161 10.541 8.29096C10.6816 8.15031 10.8724 8.07129 11.0713 8.07129ZM15.5713 19.3213C15.3724 19.3213 15.1816 19.4003 15.041 19.541C14.9003 19.6816 14.8213 19.8724 14.8213 20.0713C14.8213 20.2702 14.9003 20.461 15.041 20.6016C15.1816 20.7423 15.3724 20.8213 15.5713 20.8213C15.7702 20.8213 15.961 20.7423 16.1016 20.6016C16.2423 20.461 16.3213 20.2702 16.3213 20.0713C16.3213 19.8724 16.2423 19.6816 16.1016 19.541C15.961 19.4003 15.7702 19.3213 15.5713 19.3213Z" fill="#3563E9"/>
</g>
<defs>
<clipPath id="clip0_6716_2324">
<rect width="18" height="18" fill="white" transform="translate(6.57129 6.57129)"/>
</clipPath>
</defs>
</svg>
