<svg width="31" height="31" viewBox="0 0 31 31" fill="none" xmlns="http://www.w3.org/2000/svg">
<circle cx="15.5713" cy="15.5713" r="15" fill="white"/>
<g clip-path="url(#clip0_6716_2325)">
<path d="M9.43689 11.3903L15.3597 7.83933C15.4592 7.7796 15.5731 7.74805 15.6892 7.74805C15.8053 7.74805 15.9192 7.7796 16.0188 7.83933L21.9358 11.3909C21.9833 11.4194 22.0226 11.4597 22.0498 11.5078C22.0771 11.556 22.0914 11.6104 22.0914 11.6657V19.8104C22.0914 19.9803 22.0239 20.1432 21.9038 20.2633C21.7837 20.3835 21.6208 20.4509 21.4509 20.4509H9.92176C9.75189 20.4509 9.58897 20.3835 9.46885 20.2633C9.34873 20.1432 9.28125 19.9803 9.28125 19.8104V11.6651C9.28124 11.6097 9.29557 11.5553 9.32285 11.5072C9.35013 11.459 9.38942 11.4188 9.43689 11.3903ZM19.751 12.2806L15.7254 15.7643L11.6172 12.2768L10.7884 13.2529L15.7331 17.4514L20.5888 13.2497L19.751 12.2806Z" fill="#3563E9"/>
</g>
<defs>
<clipPath id="clip0_6716_2325">
<rect width="15.3722" height="15.3722" fill="white" transform="translate(8 7)"/>
</clipPath>
</defs>
</svg>
