<svg width="31" height="31" viewBox="0 0 31 31" fill="none" xmlns="http://www.w3.org/2000/svg">
<circle cx="15.5713" cy="15.5713" r="15" fill="white"/>
<path d="M19.7765 17.7763L15.7269 21.826L11.6773 17.7763C10.8764 16.9754 10.331 15.955 10.11 14.8441C9.88907 13.7332 10.0025 12.5817 10.436 11.5352C10.8694 10.4888 11.6035 9.5944 12.5452 8.96514C13.487 8.33587 14.5942 8 15.7269 8C16.8596 8 17.9668 8.33587 18.9086 8.96514C19.8504 9.5944 20.5844 10.4888 21.0179 11.5352C21.4513 12.5817 21.5647 13.7332 21.3438 14.8441C21.1228 15.955 20.5774 16.9754 19.7765 17.7763ZM10.7159 22.3171H20.738V23.7488H10.7159V22.3171Z" fill="#3563E9"/>
</svg>
